<svg width="40" height="40" viewBox="0 0 40 40" fill="none" xmlns="http://www.w3.org/2000/svg">
<path d="M0 20C0 13.7874 0 10.6812 1.01494 8.23089C2.36819 4.96385 4.96385 2.36819 8.23089 1.01494C10.6812 0 13.7874 0 20 0C26.2126 0 29.3188 0 31.7691 1.01494C35.0362 2.36819 37.6318 4.96385 38.9851 8.23089C40 10.6812 40 13.7874 40 20C40 26.2126 40 29.3188 38.9851 31.7691C37.6318 35.0362 35.0362 37.6318 31.7691 38.9851C29.3188 40 26.2126 40 20 40C13.7874 40 10.6812 40 8.23089 38.9851C4.96385 37.6318 2.36819 35.0362 1.01494 31.7691C0 29.3188 0 26.2126 0 20Z" fill="#54ACFF"/>
<path d="M4.95756 22.8722L15.5787 18.4719L22.6109 27.6024L24.4224 20.8415L17.3811 11.7452L6.76912 16.1113L4.95756 22.8722Z" fill="#0D3B66"/>
<path d="M35.0422 16.4473L24.421 20.8476L17.3889 11.7171L15.5773 18.4779L22.6186 27.5743L33.2306 23.2081L35.0422 16.4473Z" fill="white"/>
</svg>
