<svg width="133" height="19" viewBox="0 0 133 19" fill="none" xmlns="http://www.w3.org/2000/svg">
<path d="M0 9.12833C0 6.6433 0 5.40079 0.405976 4.42068C0.947277 3.11386 1.98554 2.0756 3.29236 1.5343C4.27247 1.12833 5.51498 1.12833 8 1.12833C10.485 1.12833 11.7275 1.12833 12.7076 1.5343C14.0145 2.0756 15.0527 3.11386 15.594 4.42068C16 5.40079 16 6.6433 16 9.12833C16 11.6133 16 12.8559 15.594 13.836C15.0527 15.1428 14.0145 16.1811 12.7076 16.7224C11.7275 17.1283 10.485 17.1283 8 17.1283C5.51498 17.1283 4.27247 17.1283 3.29236 16.7224C1.98554 16.1811 0.947277 15.1428 0.405976 13.836C0 12.8559 0 11.6133 0 9.12833Z" fill="#54ACFF"/>
<path d="M1.98288 10.2772L6.23134 8.51712L9.0442 12.1693L9.76883 9.46499L6.9523 5.82644L2.7075 7.57291L1.98288 10.2772Z" fill="#0D3B66"/>
<path d="M14.0169 7.70728L9.76842 9.46741L6.95555 5.8152L6.23093 8.51954L9.04745 12.1581L13.2923 10.4116L14.0169 7.70728Z" fill="white"/>
<path d="M22 17.9717L24.469 0.284888H28.1489L26.1309 14.7667H33.6092L33.1581 17.9717H22Z" fill="#54ACFF"/>
<path d="M38.4256 18.2566C37.5551 18.2566 36.7954 18.1221 36.1465 17.853C35.4976 17.584 34.9911 17.1883 34.6271 16.666C34.2789 16.1279 34.1048 15.479 34.1048 14.7193C34.1048 13.8646 34.3185 13.1445 34.7458 12.5589C35.189 11.9574 35.7825 11.4747 36.5264 11.1107C37.2861 10.7466 38.1407 10.4934 39.0904 10.351L43.1738 9.70996L42.9126 12.3214L39.5889 12.9387C39.0983 13.0337 38.6709 13.2078 38.3069 13.461C37.9587 13.6984 37.7846 14.0466 37.7846 14.5056C37.7846 14.9013 37.9271 15.1941 38.212 15.384C38.4968 15.5581 38.8609 15.6451 39.304 15.6451C39.8896 15.6451 40.404 15.5106 40.8472 15.2416C41.3062 14.9725 41.6781 14.6164 41.963 14.1732C42.2637 13.7301 42.4457 13.2473 42.509 12.725L42.9601 9.42507C43.0076 9.06105 42.9443 8.75242 42.7702 8.49918C42.5961 8.24595 42.3508 8.04811 42.0342 7.90567C41.7177 7.76322 41.3695 7.692 40.9896 7.692C40.3091 7.692 39.6997 7.88192 39.1616 8.26178C38.6235 8.6258 38.2199 9.0927 37.9508 9.66248L35.1969 8.16681C35.5293 7.43877 35.9962 6.82151 36.5976 6.31504C37.199 5.80857 37.8954 5.4208 38.6868 5.15174C39.4781 4.86685 40.317 4.72441 41.2033 4.72441C42.2954 4.72441 43.2608 4.93016 44.0997 5.34167C44.9543 5.75317 45.6032 6.32295 46.0464 7.051C46.5054 7.77905 46.6637 8.6258 46.5212 9.59126L45.3579 17.9717H42.0105L42.2954 15.8826L43.245 15.8113C42.8018 16.3811 42.3349 16.848 41.8443 17.212C41.3536 17.5761 40.8234 17.8372 40.2537 17.9955C39.6997 18.1696 39.0904 18.2566 38.4256 18.2566Z" fill="#54ACFF"/>
<path d="M47.3761 17.9717L49.1804 5.0093H52.5041L52.1717 7.5733L52.0293 6.90856C52.4408 6.13302 52.9868 5.57907 53.6674 5.2467C54.3638 4.89851 55.1472 4.72441 56.0177 4.72441C57.0148 4.72441 57.8616 4.96181 58.558 5.43663C59.2543 5.89562 59.7608 6.52079 60.0774 7.31215C60.4097 8.10351 60.5047 8.98983 60.3623 9.97111L59.2464 17.9717H55.6853L56.7299 10.3984C56.8407 9.65457 56.7062 9.06105 56.3263 8.61789C55.9465 8.1589 55.4084 7.92941 54.712 7.92941C54.253 7.92941 53.8256 8.03228 53.43 8.23804C53.0501 8.44379 52.7336 8.72868 52.4803 9.0927C52.2271 9.45673 52.0609 9.89197 51.9818 10.3984L50.9372 17.9717H47.3761Z" fill="#54ACFF"/>
<path d="M67.9268 18.2566C66.6765 18.2566 65.5528 17.9797 64.5556 17.4257C63.5744 16.8717 62.7988 16.112 62.2291 15.1466C61.6751 14.1811 61.3981 13.0891 61.3981 11.8704C61.3981 10.8733 61.5881 9.93946 61.9679 9.06896C62.3478 8.19847 62.8701 7.43876 63.5348 6.78985C64.1995 6.14094 64.9672 5.63447 65.8376 5.27044C66.724 4.90642 67.6736 4.72441 68.6865 4.72441C69.6678 4.72441 70.5621 4.89851 71.3692 5.2467C72.1764 5.57907 72.857 6.04597 73.4109 6.64741C73.9649 7.24884 74.3447 7.95315 74.5505 8.76033L71.393 9.99485C71.2189 9.34594 70.8865 8.83947 70.3959 8.47544C69.9052 8.11142 69.3196 7.92941 68.6391 7.92941C67.9268 7.92941 67.3017 8.11142 66.7635 8.47544C66.2412 8.83947 65.8297 9.3222 65.529 9.92363C65.2441 10.5251 65.1017 11.174 65.1017 11.8704C65.1017 12.5035 65.2204 13.0574 65.4578 13.5322C65.6952 14.007 66.0276 14.379 66.4549 14.648C66.8981 14.9171 67.4045 15.0516 67.9743 15.0516C68.7182 15.0516 69.3671 14.8538 69.9211 14.4581C70.475 14.0624 70.8865 13.5401 71.1556 12.8912L74.1706 14.3394C73.8699 15.0991 73.4109 15.7797 72.7937 16.3811C72.1923 16.9667 71.4721 17.4257 70.6333 17.7581C69.7944 18.0904 68.8923 18.2566 67.9268 18.2566Z" fill="#54ACFF"/>
<path d="M81.983 18.2566C80.6694 18.2566 79.5298 17.9797 78.5644 17.4257C77.5989 16.8559 76.855 16.0883 76.3327 15.1229C75.8263 14.1574 75.573 13.0891 75.573 11.9179C75.573 10.9207 75.7471 9.99485 76.0953 9.14018C76.4435 8.26969 76.9342 7.50207 77.5672 6.83733C78.2003 6.17259 78.9363 5.65821 79.7751 5.29418C80.614 4.91433 81.524 4.72441 82.5053 4.72441C83.819 4.72441 84.9269 4.98556 85.829 5.50785C86.7312 6.01432 87.4117 6.71071 87.8707 7.59704C88.3455 8.48336 88.5829 9.48838 88.5829 10.6121C88.5829 10.9128 88.5592 11.2135 88.5117 11.5143C88.4642 11.815 88.4009 12.1394 88.3218 12.4876H78.5881L78.778 9.87615H86.47L84.6895 11.0632C84.8952 10.3984 84.9348 9.80492 84.8082 9.28263C84.6815 8.76033 84.4125 8.34883 84.001 8.04811C83.6053 7.73157 83.0988 7.5733 82.4816 7.5733C81.6744 7.5733 81.0334 7.77905 80.5586 8.19055C80.0838 8.60206 79.7356 9.1481 79.514 9.82867C79.3082 10.5092 79.2054 11.261 79.2054 12.084C79.2054 12.7329 79.3161 13.2948 79.5377 13.7696C79.7593 14.2286 80.0838 14.5768 80.5111 14.8142C80.9384 15.0516 81.4528 15.1703 82.0542 15.1703C82.7032 15.1703 83.2729 15.0358 83.7636 14.7667C84.2542 14.4977 84.6341 14.1416 84.9031 13.6984L87.7045 15.1466C87.4038 15.7797 86.9686 16.3336 86.3988 16.8084C85.829 17.2674 85.1643 17.6235 84.4046 17.8768C83.6607 18.13 82.8535 18.2566 81.983 18.2566Z" fill="#54ACFF"/>
<path d="M96.8282 18.2566C95.8628 18.2566 94.9844 18.0904 94.193 17.7581C93.4175 17.4099 92.8081 16.9192 92.365 16.2861L92.7923 15.5977L92.4837 17.9717H89.1125L91.629 0H95.2138L94.193 7.47833L93.2671 6.71863C93.7419 6.06971 94.3513 5.57907 95.0951 5.2467C95.8549 4.89851 96.6937 4.72441 97.6117 4.72441C98.8145 4.72441 99.8829 5.0093 100.817 5.57907C101.75 6.13302 102.486 6.89273 103.025 7.85818C103.578 8.80781 103.855 9.88406 103.855 11.0869C103.855 12.0682 103.673 12.9941 103.309 13.8646C102.945 14.7351 102.439 15.5027 101.79 16.1674C101.157 16.8164 100.413 17.3307 99.5584 17.7106C98.7196 18.0746 97.8095 18.2566 96.8282 18.2566ZM96.4484 15.0516C97.1764 15.0516 97.8174 14.8775 98.3714 14.5293C98.9253 14.1811 99.3606 13.7063 99.6771 13.1049C99.9936 12.5035 100.152 11.8308 100.152 11.0869C100.152 10.4697 100.025 9.92363 99.7721 9.44881C99.5188 8.974 99.1627 8.60206 98.7037 8.333C98.2606 8.06394 97.7304 7.92941 97.1131 7.92941C96.4009 7.92941 95.7678 8.11142 95.2138 8.47544C94.6757 8.82364 94.2563 9.29846 93.9556 9.89989C93.6549 10.5013 93.5045 11.174 93.5045 11.9179C93.5045 12.5351 93.6232 13.0811 93.8606 13.556C94.1139 14.0308 94.4621 14.4027 94.9052 14.6718C95.3484 14.925 95.8628 15.0516 96.4484 15.0516Z" fill="#54ACFF"/>
<path d="M111.473 18.2566C110.239 18.2566 109.123 17.9876 108.126 17.4494C107.129 16.8955 106.337 16.1358 105.752 15.1703C105.166 14.2049 104.873 13.1049 104.873 11.8704C104.873 10.8733 105.063 9.93946 105.443 9.06896C105.823 8.19847 106.353 7.43876 107.034 6.78985C107.714 6.14094 108.498 5.63447 109.384 5.27044C110.27 4.90642 111.22 4.72441 112.233 4.72441C113.468 4.72441 114.583 5.00138 115.58 5.55533C116.578 6.09346 117.361 6.84525 117.931 7.8107C118.516 8.76033 118.809 9.86032 118.809 11.1107C118.809 12.1078 118.619 13.0416 118.239 13.9121C117.86 14.7667 117.329 15.5264 116.649 16.1912C115.968 16.8401 115.185 17.3466 114.298 17.7106C113.412 18.0746 112.47 18.2566 111.473 18.2566ZM111.521 15.0516C112.233 15.0516 112.858 14.8775 113.396 14.5293C113.934 14.1653 114.354 13.6826 114.655 13.0811C114.955 12.4797 115.106 11.8071 115.106 11.0632C115.106 10.4459 114.987 9.9078 114.75 9.44881C114.512 8.974 114.172 8.60206 113.729 8.333C113.301 8.06394 112.787 7.92941 112.186 7.92941C111.473 7.92941 110.84 8.11142 110.286 8.47544C109.748 8.82364 109.329 9.29846 109.028 9.89989C108.727 10.5013 108.577 11.174 108.577 11.9179C108.577 12.5351 108.696 13.0811 108.933 13.556C109.17 14.0149 109.511 14.379 109.954 14.648C110.397 14.9171 110.919 15.0516 111.521 15.0516Z" fill="#54ACFF"/>
<path d="M117.925 17.9717L123.432 11.3718L119.848 5.0093H123.717L126.448 10.0423H124.643L128.75 5.0093H133L127.54 11.4668L131.148 17.9717H127.35L124.572 12.9387H126.186L122.15 17.9717H117.925Z" fill="#54ACFF"/>
</svg>
