<svg width="21" height="20" viewBox="0 0 21 20" fill="none" xmlns="http://www.w3.org/2000/svg">
<path fill-rule="evenodd" clip-rule="evenodd" d="M10.1428 0.833374C5.08019 0.833374 0.976135 4.93743 0.976135 10C0.976135 15.0627 5.08019 19.1667 10.1428 19.1667C15.2054 19.1667 19.3095 15.0627 19.3095 10C19.3095 4.93743 15.2054 0.833374 10.1428 0.833374ZM14.4821 8.0893C14.8075 7.76386 14.8075 7.23622 14.4821 6.91079C14.1566 6.58535 13.629 6.58535 13.3035 6.91079L8.8928 11.3215L6.98206 9.41079C6.65662 9.08535 6.12898 9.08535 5.80355 9.41079C5.47811 9.73622 5.47811 10.2639 5.80355 10.5893L8.30355 13.0893C8.62898 13.4147 9.15662 13.4147 9.48206 13.0893L14.4821 8.0893Z" fill="#16CB3E"/>
</svg>
