<svg width="36" height="36" viewBox="0 0 36 36" fill="none" xmlns="http://www.w3.org/2000/svg">
<rect width="36" height="36" rx="18" fill="#E6E6E6"/>
<path d="M15.5 10.5H20.5M10.5 13H25.5M23.8333 13L23.2489 21.7661C23.1612 23.0813 23.1174 23.7389 22.8333 24.2375C22.5833 24.6765 22.206 25.0294 21.7514 25.2497C21.235 25.5 20.5759 25.5 19.2578 25.5H16.7422C15.4241 25.5 14.765 25.5 14.2486 25.2497C13.794 25.0294 13.4167 24.6765 13.1667 24.2375C12.8826 23.7389 12.8388 23.0813 12.7511 21.7661L12.1667 13M16.3333 16.75V20.9167M19.6667 16.75V20.9167" stroke="#333333" stroke-width="1.5" stroke-linecap="round" stroke-linejoin="round"/>
</svg>
