<svg width="48" height="48" viewBox="0 0 48 48" fill="none" xmlns="http://www.w3.org/2000/svg">
<rect x="0.5" y="0.5" width="47" height="47" rx="23.5" stroke="#B2B2B2"/>
<path d="M24 12C17.3727 12 12 17.4003 12 24.0617C12 30.109 16.4318 35.102 22.2065 35.9742V27.2586H19.2376V24.088H22.2065V21.9783C22.2065 18.4853 23.8996 16.9519 26.7878 16.9519C28.1711 16.9519 28.9025 17.0549 29.2489 17.1021V19.8697H27.2787C26.0525 19.8697 25.6244 21.038 25.6244 22.355V24.088H29.2178L28.7302 27.2586H25.6244V36C31.4815 35.2012 36 30.1676 36 24.0617C36 17.4003 30.6273 12 24 12Z" fill="#1A64A3"/>
</svg>
