<svg width="48" height="48" viewBox="0 0 48 48" fill="none" xmlns="http://www.w3.org/2000/svg">
<rect x="0.5" y="0.5" width="47" height="47" rx="23.5" stroke="#B2B2B2"/>
<path d="M35.7666 21.6498H34.8V21.6H24V26.4H30.7818C29.7924 29.1942 27.1338 31.2 24 31.2C20.0238 31.2 16.8 27.9762 16.8 24C16.8 20.0238 20.0238 16.8 24 16.8C25.8354 16.8 27.5052 17.4924 28.7766 18.6234L32.1708 15.2292C30.0276 13.2318 27.1608 12 24 12C17.373 12 12 17.373 12 24C12 30.627 17.373 36 24 36C30.627 36 36 30.627 36 24C36 23.1954 35.9172 22.41 35.7666 21.6498Z" fill="#FFC107"/>
<path d="M13.3835 18.4146L17.3261 21.306C18.3929 18.6648 20.9765 16.8 23.9999 16.8C25.8353 16.8 27.5051 17.4924 28.7765 18.6234L32.1707 15.2292C30.0275 13.2318 27.1607 12 23.9999 12C19.3907 12 15.3935 14.6022 13.3835 18.4146Z" fill="#FF3D00"/>
<path d="M23.9999 36C27.0995 36 29.9159 34.8138 32.0453 32.8848L28.3313 29.742C27.086 30.689 25.5644 31.2012 23.9999 31.2C20.8787 31.2 18.2285 29.2098 17.2301 26.4324L13.3169 29.4474C15.3029 33.3336 19.3361 36 23.9999 36Z" fill="#4CAF50"/>
<path d="M35.7666 21.6498H34.8V21.6H24V26.4H30.7818C30.3085 27.7299 29.456 28.8919 28.3296 29.7426L28.3314 29.7414L32.0454 32.8842C31.7826 33.123 36 30 36 24C36 23.1954 35.9172 22.41 35.7666 21.6498Z" fill="#1976D2"/>
</svg>
