<svg width="271" height="217" viewBox="0 0 271 217" fill="none" xmlns="http://www.w3.org/2000/svg">
<path d="M108.5 217C168.423 217 217 168.423 217 108.5C217 48.5771 168.423 0 108.5 0C48.5771 0 0 48.5771 0 108.5C0 168.423 48.5771 217 108.5 217Z" fill="url(#paint0_linear_108_1071)"/>
<g filter="url(#filter0_d_108_1071)">
<path d="M59.3133 49.1875H254.613C256.532 49.1875 258.372 49.9496 259.728 51.3061C261.085 52.6626 261.847 54.5024 261.847 56.4208V92.5875C261.847 94.5059 261.085 96.3457 259.728 97.7022C258.372 99.0588 256.532 99.8208 254.613 99.8208H59.3133C57.3949 99.8208 55.5551 99.0588 54.1986 97.7022C52.842 96.3457 52.08 94.5059 52.08 92.5875V56.4208C52.08 54.5024 52.842 52.6626 54.1986 51.3061C55.5551 49.9496 57.3949 49.1875 59.3133 49.1875V49.1875Z" fill="white"/>
</g>
<path d="M151.9 60.7604H114.287C111.89 60.7604 109.947 62.7035 109.947 65.1004C109.947 67.4973 111.89 69.4404 114.287 69.4404H151.9C154.297 69.4404 156.24 67.4973 156.24 65.1004C156.24 62.7035 154.297 60.7604 151.9 60.7604Z" fill="#B4DAFF"/>
<path d="M177.94 79.5676H114.287C111.89 79.5676 109.947 81.5107 109.947 83.9076C109.947 86.3045 111.89 88.2476 114.287 88.2476H177.94C180.337 88.2476 182.28 86.3045 182.28 83.9076C182.28 81.5107 180.337 79.5676 177.94 79.5676Z" fill="#DEE9FC"/>
<path d="M98.3731 74.504C98.3731 62.9189 88.9816 53.5273 77.3965 53.5273C65.8114 53.5273 56.4198 62.9189 56.4198 74.504C56.4198 86.0891 65.8114 95.4807 77.3965 95.4807C88.9816 95.4807 98.3731 86.0891 98.3731 74.504Z" fill="#1485FD"/>
<path d="M76.095 81.2946C77.8908 81.2944 79.6349 80.6935 81.0498 79.5876L85.4983 84.0361L86.9291 82.6053L82.4791 78.1554C83.5972 76.7099 84.1926 74.9283 84.1685 73.1011C84.1444 71.2738 83.5021 69.5086 82.3464 68.0931C81.1906 66.6776 79.5895 65.6953 77.8039 65.3063C76.0184 64.9173 74.1538 65.1444 72.5139 65.9508C70.874 66.7572 69.5556 68.0952 68.7735 69.7468C67.9914 71.3984 67.7918 73.2662 68.2071 75.0458C68.6225 76.8254 69.6283 78.4118 71.0607 79.5466C72.4931 80.6813 74.2676 81.2975 76.095 81.2946ZM76.095 67.126C77.2967 67.126 78.4714 67.4823 79.4706 68.15C80.4698 68.8176 81.2486 69.7666 81.7085 70.8768C82.1684 71.9871 82.2887 73.2087 82.0542 74.3874C81.8198 75.566 81.2411 76.6486 80.3914 77.4984C79.5416 78.3481 78.459 78.9268 77.2804 79.1612C76.1017 79.3957 74.8801 79.2754 73.7698 78.8155C72.6596 78.3556 71.7106 77.5768 71.043 76.5776C70.3753 75.5784 70.019 74.4037 70.019 73.202C70.019 71.5905 70.6591 70.0451 71.7986 68.9056C72.9381 67.7661 74.4835 67.126 76.095 67.126Z" fill="white"/>
<g filter="url(#filter1_d_108_1071)">
<path d="M232.913 114.287H37.613C33.6181 114.287 30.3796 117.525 30.3796 121.52V157.687C30.3796 161.682 33.6181 164.92 37.613 164.92H232.913C236.908 164.92 240.146 161.682 240.146 157.687V121.52C240.146 117.525 236.908 114.287 232.913 114.287Z" fill="white"/>
</g>
<path d="M130.2 125.86H92.5865C90.1895 125.86 88.2465 127.803 88.2465 130.2C88.2465 132.597 90.1895 134.54 92.5865 134.54H130.2C132.597 134.54 134.54 132.597 134.54 130.2C134.54 127.803 132.597 125.86 130.2 125.86Z" fill="#B4DAFF"/>
<path d="M156.24 144.667H92.5866C90.1897 144.667 88.2466 146.61 88.2466 149.007C88.2466 151.404 90.1897 153.347 92.5866 153.347H156.24C158.637 153.347 160.58 151.404 160.58 149.007C160.58 146.61 158.637 144.667 156.24 144.667Z" fill="#DEE9FC"/>
<path d="M76.6729 139.604C76.6729 128.018 67.2814 118.627 55.6963 118.627C44.1112 118.627 34.7196 128.018 34.7196 139.604C34.7196 151.189 44.1112 160.58 55.6963 160.58C67.2814 160.58 76.6729 151.189 76.6729 139.604Z" fill="#1485FD"/>
<path d="M54.3947 146.395C56.1905 146.394 57.9346 145.793 59.3495 144.687L63.798 149.136L65.2288 147.705L60.7788 143.255C61.8968 141.81 62.4923 140.028 62.4682 138.201C62.4441 136.374 61.8018 134.609 60.646 133.193C59.4903 131.778 57.8891 130.795 56.1036 130.406C54.3181 130.017 52.4535 130.244 50.8136 131.051C49.1737 131.857 47.8553 133.195 47.0732 134.847C46.2911 136.498 46.0915 138.366 46.5068 140.146C46.9222 141.925 47.928 143.512 49.3604 144.646C50.7928 145.781 52.5673 146.397 54.3947 146.395ZM54.3947 132.226C55.5964 132.226 56.7711 132.582 57.7703 133.25C58.7695 133.918 59.5483 134.866 60.0082 135.977C60.468 137.087 60.5884 138.309 60.3539 139.487C60.1195 140.666 59.5408 141.749 58.6911 142.598C57.8413 143.448 56.7587 144.027 55.58 144.261C54.4014 144.496 53.1797 144.375 52.0695 143.915C50.9592 143.456 50.0103 142.677 49.3427 141.678C48.675 140.678 48.3187 139.504 48.3187 138.302C48.3187 136.69 48.9588 135.145 50.0983 134.006C51.2378 132.866 52.7832 132.226 54.3947 132.226Z" fill="white"/>
<defs>
<filter id="filter0_d_108_1071" x="43.4" y="44.8475" width="227.127" height="67.9933" filterUnits="userSpaceOnUse" color-interpolation-filters="sRGB">
<feFlood flood-opacity="0" result="BackgroundImageFix"/>
<feColorMatrix in="SourceAlpha" type="matrix" values="0 0 0 0 0 0 0 0 0 0 0 0 0 0 0 0 0 0 127 0" result="hardAlpha"/>
<feOffset dy="4.34"/>
<feGaussianBlur stdDeviation="4.34"/>
<feColorMatrix type="matrix" values="0 0 0 0 0 0 0 0 0 0 0 0 0 0 0 0 0 0 0.161 0"/>
<feBlend mode="normal" in2="BackgroundImageFix" result="effect1_dropShadow_108_1071"/>
<feBlend mode="normal" in="SourceGraphic" in2="effect1_dropShadow_108_1071" result="shape"/>
</filter>
<filter id="filter1_d_108_1071" x="21.6996" y="109.947" width="227.127" height="67.9933" filterUnits="userSpaceOnUse" color-interpolation-filters="sRGB">
<feFlood flood-opacity="0" result="BackgroundImageFix"/>
<feColorMatrix in="SourceAlpha" type="matrix" values="0 0 0 0 0 0 0 0 0 0 0 0 0 0 0 0 0 0 127 0" result="hardAlpha"/>
<feOffset dy="4.34"/>
<feGaussianBlur stdDeviation="4.34"/>
<feColorMatrix type="matrix" values="0 0 0 0 0 0 0 0 0 0 0 0 0 0 0 0 0 0 0.161 0"/>
<feBlend mode="normal" in2="BackgroundImageFix" result="effect1_dropShadow_108_1071"/>
<feBlend mode="normal" in="SourceGraphic" in2="effect1_dropShadow_108_1071" result="shape"/>
</filter>
<linearGradient id="paint0_linear_108_1071" x1="108.5" y1="0" x2="108.5" y2="217" gradientUnits="userSpaceOnUse">
<stop stop-color="#E3ECFA"/>
<stop offset="1" stop-color="#DAE7FF"/>
</linearGradient>
</defs>
</svg>
