<svg width="20" height="20" viewBox="0 0 20 20" fill="none" xmlns="http://www.w3.org/2000/svg">
<path d="M10.8334 4.16666C10.8334 3.70642 10.4603 3.33333 10 3.33333C9.5398 3.33333 9.16671 3.70642 9.16671 4.16666V9.16666H4.16671C3.70647 9.16666 3.33337 9.53976 3.33337 10C3.33337 10.4602 3.70647 10.8333 4.16671 10.8333H9.16671V15.8333C9.16671 16.2936 9.5398 16.6667 10 16.6667C10.4603 16.6667 10.8334 16.2936 10.8334 15.8333V10.8333H15.8334C16.2936 10.8333 16.6667 10.4602 16.6667 10C16.6667 9.53976 16.2936 9.16666 15.8334 9.16666H10.8334V4.16666Z" fill="white"/>
</svg>
