<svg width="16" height="16" viewBox="0 0 16 16" fill="none" xmlns="http://www.w3.org/2000/svg">
<g clip-path="url(#clip0_2084_315)">
<path d="M2.6666 14.545C3.06832 14.6667 3.61091 14.6667 4.53325 14.6667H11.4666C12.3889 14.6667 12.9315 14.6667 13.3332 14.545M2.6666 14.545C2.58047 14.5189 2.50081 14.4872 2.42527 14.4487C2.04895 14.2569 1.74299 13.951 1.55124 13.5746C1.33325 13.1468 1.33325 12.5868 1.33325 11.4667V4.53333C1.33325 3.41322 1.33325 2.85317 1.55124 2.42535C1.74299 2.04902 2.04895 1.74306 2.42527 1.55132C2.85309 1.33333 3.41315 1.33333 4.53325 1.33333H11.4666C12.5867 1.33333 13.1467 1.33333 13.5746 1.55132C13.9509 1.74306 14.2569 2.04902 14.4486 2.42535C14.6666 2.85317 14.6666 3.41322 14.6666 4.53333V11.4667C14.6666 12.5868 14.6666 13.1468 14.4486 13.5746C14.2569 13.951 13.9509 14.2569 13.5746 14.4487C13.499 14.4872 13.4194 14.5189 13.3332 14.545M2.6666 14.545C2.66682 14.0054 2.67006 13.7199 2.71782 13.4798C2.92824 12.4219 3.75517 11.595 4.81301 11.3846C5.07061 11.3333 5.38038 11.3333 5.99992 11.3333H9.99992C10.6195 11.3333 10.9292 11.3333 11.1868 11.3846C12.2447 11.595 13.0716 12.4219 13.282 13.4798C13.3298 13.7199 13.333 14.0054 13.3332 14.545M10.6666 6.33333C10.6666 7.80609 9.47268 9 7.99992 9C6.52716 9 5.33325 7.80609 5.33325 6.33333C5.33325 4.86057 6.52716 3.66666 7.99992 3.66666C9.47268 3.66666 10.6666 4.86057 10.6666 6.33333Z" stroke="white" stroke-width="1.5" stroke-linecap="round" stroke-linejoin="round"/>
</g>
<defs>
<clipPath id="clip0_2084_315">
<rect width="16" height="16" fill="white"/>
</clipPath>
</defs>
</svg>
