<svg width="32" height="33" viewBox="0 0 32 33" fill="none" xmlns="http://www.w3.org/2000/svg">
<path fill-rule="evenodd" clip-rule="evenodd" d="M7.33335 11.8334C7.33335 9.62424 9.12422 7.83337 11.3334 7.83337C13.5425 7.83337 15.3334 9.62424 15.3334 11.8334C15.3334 14.0425 13.5425 15.8334 11.3334 15.8334C9.12422 15.8334 7.33335 14.0425 7.33335 11.8334Z" fill="#E6E6E6"/>
<path fill-rule="evenodd" clip-rule="evenodd" d="M16.6667 3.16671H10.345C9.27167 3.16669 8.38584 3.16668 7.66425 3.22563C6.91479 3.28687 6.22585 3.41829 5.57874 3.74801C4.57521 4.25933 3.75931 5.07523 3.24799 6.07876C2.91827 6.72587 2.78685 7.41481 2.72561 8.16427C2.66666 8.88586 2.66667 9.77167 2.66669 10.845V22.1551C2.66667 23.2284 2.66666 24.1142 2.72561 24.8358C2.78685 25.5853 2.91827 26.2742 3.24799 26.9213C3.75931 27.9249 4.57521 28.7407 5.57874 29.2521C6.22585 29.5818 6.91479 29.7132 7.66425 29.7744C7.8981 29.7936 8.1492 29.8065 8.41833 29.8152C8.69742 29.8337 9.03122 29.8337 9.37527 29.8336C13.8057 29.8336 18.2362 29.8334 22.6667 29.8334C22.7287 29.8334 22.7899 29.8334 22.8501 29.8334C23.9106 29.834 24.6982 29.8344 25.3804 29.6516C27.2209 29.1585 28.6585 27.7209 29.1516 25.8804C29.3854 25.0081 29.3337 24.074 29.3334 23.1793C29.3357 22.927 29.3335 22.6744 29.3335 22.422C29.3342 21.7968 29.3348 21.2459 29.1898 20.7196C29.0625 20.2576 28.8533 19.8223 28.572 19.4343C28.2516 18.9923 27.8211 18.6486 27.3324 18.2586L23.5577 15.2389C23.3312 15.0577 23.1073 14.8785 22.9039 14.7396C22.6777 14.5852 22.3993 14.4249 22.0509 14.3355C21.5612 14.21 21.0458 14.2262 20.5649 14.3824C20.2228 14.4935 19.9551 14.6711 19.7391 14.8394C19.5449 14.9908 19.3327 15.1838 19.1181 15.3789L7.77397 25.6918C7.48933 25.9505 7.21416 26.2006 7.01189 26.4194C6.93078 26.5072 6.80758 26.6437 6.69241 26.8241C6.23505 26.5668 5.86299 26.1797 5.624 25.7107C5.51775 25.5021 5.43118 25.2032 5.38342 24.6187C5.33439 24.0185 5.33336 23.2421 5.33336 22.1V10.9C5.33336 9.75794 5.33439 8.98154 5.38342 8.38143C5.43118 7.79687 5.51775 7.49793 5.624 7.2894C5.87967 6.78764 6.28761 6.37969 6.78938 6.12402C6.99791 6.01777 7.29685 5.9312 7.88141 5.88344C8.48152 5.83441 9.25792 5.83338 10.4 5.83338H16.6667C17.4031 5.83338 18 5.23642 18 4.50004C18 3.76366 17.4031 3.16671 16.6667 3.16671Z" fill="#E6E6E6"/>
<path d="M26.6667 3.16671C26.6667 2.43033 26.0697 1.83337 25.3334 1.83337C24.597 1.83337 24 2.43033 24 3.16671V5.83337H21.3334C20.597 5.83337 20 6.43033 20 7.16671C20 7.90309 20.597 8.50004 21.3334 8.50004H24V11.1667C24 11.9031 24.597 12.5 25.3334 12.5C26.0697 12.5 26.6667 11.9031 26.6667 11.1667V8.50004H29.3334C30.0697 8.50004 30.6667 7.90309 30.6667 7.16671C30.6667 6.43033 30.0697 5.83337 29.3334 5.83337H26.6667V3.16671Z" fill="#E6E6E6"/>
</svg>
